<?xml version="1.0" encoding="iso-8859-1"?>
<!-- Generator: Adobe Illustrator 19.0.0, SVG Export Plug-In . SVG Version: 6.00 Build 0)  -->
<svg version="1.1" id="Capa_1" xmlns="http://www.w3.org/2000/svg" xmlns:xlink="http://www.w3.org/1999/xlink" x="0px" y="0px"
	 viewBox="0 0 512.003 512.003" style="enable-background:new 0 0 512.003 512.003;" xml:space="preserve">
<path style="fill:#EBBA16;" d="M83.385,86.028c-2.2,0-4.4-0.847-6.077-2.534c-3.33-3.347-3.313-8.774,0.043-12.103
	C145.828,3.444,253.715-18.597,345.8,16.532c4.417,1.686,6.634,6.634,4.948,11.051c-1.686,4.417-6.625,6.642-11.051,4.948
	C253.783-0.245,153.198,20.238,89.411,83.546C87.742,85.198,85.559,86.028,83.385,86.028z"/>
<path style="fill:#61B872;" d="M10.088,238.057c-0.342,0-0.685-0.017-1.027-0.06c-4.699-0.556-8.046-4.819-7.49-9.51
	c5.427-45.444,22.272-88.824,48.713-125.451c2.765-3.843,8.115-4.699,11.949-1.934c3.835,2.765,4.699,8.115,1.926,11.949
	c-24.746,34.282-40.513,74.906-45.598,117.465C18.057,234.865,14.368,238.057,10.088,238.057z"/>
<path style="fill:#FC3952;" d="M35.459,382.306c-3.09,0-6.077-1.678-7.601-4.614c-13.045-25.097-21.673-52.12-25.653-80.324
	c-0.659-4.682,2.602-9.013,7.284-9.672c4.674-0.685,9.005,2.602,9.672,7.284c3.706,26.27,11.744,51.453,23.89,74.821
	c2.183,4.194,0.548,9.364-3.646,11.547C38.138,381.998,36.794,382.306,35.459,382.306z"/>
<path style="fill:#C5411E;" d="M181.197,501.868c-0.805,0-1.618-0.111-2.431-0.351c-24.19-7.147-46.95-17.813-67.665-31.705
	c-3.92-2.636-4.973-7.952-2.337-11.872c2.636-3.937,7.943-4.982,11.881-2.337c19.268,12.925,40.453,22.846,62.974,29.497
	c4.537,1.335,7.122,6.103,5.786,10.631C188.301,499.463,184.886,501.868,181.197,501.868z"/>
<path style="fill:#EA6248;" d="M251.25,512.003c-3.047,0-6.095-0.06-9.133-0.171c-4.725-0.171-8.414-4.126-8.252-8.859
	c0.171-4.725,4.16-8.534,8.859-8.243c34.016,1.224,68.615-4.87,100.055-17.599c4.383-1.763,9.373,0.334,11.145,4.725
	c1.772,4.383-0.342,9.373-4.725,11.145C318.358,505.489,284.684,512.003,251.25,512.003z"/>
<path style="fill:#366DB6;" d="M394.026,467.792c-2.731,0-5.41-1.301-7.07-3.724c-2.671-3.895-1.678-9.227,2.217-11.907
	c28.701-19.67,53.173-45.846,70.78-75.702c2.405-4.083,7.644-5.418,11.718-3.03c4.074,2.397,5.427,7.652,3.022,11.718
	c-18.874,31.996-45.101,60.055-75.848,81.138C397.381,467.304,395.695,467.792,394.026,467.792z"/>
<path style="fill:#7383BF;" d="M491.298,335.09c-0.83,0-1.669-0.12-2.499-0.377c-4.52-1.378-7.07-6.163-5.692-10.683
	c9.553-31.294,12.506-64.96,8.56-97.341c-0.574-4.691,2.765-8.962,7.464-9.527c4.699-0.676,8.962,2.765,9.536,7.456
	c4.237,34.735,1.07,70.84-9.176,104.412C498.352,332.711,494.962,335.09,491.298,335.09z"/>
<path style="fill:#61B872;" d="M487.515,181.05c-3.509,0-6.805-2.174-8.055-5.667c-7.926-22.084-19.071-42.867-33.109-61.776
	c-2.816-3.792-2.029-9.15,1.772-11.966c3.801-2.816,9.159-2.029,11.975,1.772c15.039,20.252,26.972,42.525,35.472,66.184
	c1.601,4.451-0.71,9.356-5.162,10.948C489.45,180.887,488.474,181.05,487.515,181.05z"/>
<path style="fill:#F76363;" d="M399.795,358.869c-1.549,0-3.116-0.419-4.528-1.301c-4.015-2.508-5.23-7.781-2.722-11.795
	c44.322-70.883,29.283-166.315-34.23-217.237c-3.689-2.962-4.28-8.346-1.327-12.035c2.953-3.681,8.337-4.271,12.035-1.318
	c70.181,56.263,86.89,161.548,38.039,239.672C405.436,357.448,402.645,358.869,399.795,358.869z"/>
<path style="fill:#25AE88;" d="M295.204,432.072c-3.929,0-7.464-2.713-8.346-6.711c-1.019-4.614,1.892-9.185,6.505-10.203
	c23.916-5.29,46.214-15.801,64.498-30.387c3.698-2.962,9.082-2.337,12.026,1.344c2.945,3.698,2.345,9.09-1.352,12.026
	c-20.312,16.221-45.033,27.879-71.482,33.725C296.436,432.004,295.811,432.072,295.204,432.072z"/>
<path style="fill:#ED8A19;" d="M96.43,315.446c-3.672,0-7.07-2.38-8.192-6.077c-7.473-24.678-9.767-51.213-6.634-76.747
	c0.574-4.691,4.828-8.149,9.544-7.447c4.691,0.565,8.029,4.836,7.456,9.536c-2.842,23.18-0.762,47.275,6.026,69.693
	c1.37,4.528-1.19,9.304-5.709,10.674C98.09,315.326,97.251,315.446,96.43,315.446z"/>
<path style="fill:#366DB6;" d="M106.231,187.649c-1.258,0-2.542-0.274-3.749-0.873c-4.246-2.071-6.009-7.199-3.937-11.444
	c14.68-30.087,37.697-55.253,66.56-72.809c4.04-2.448,9.304-1.173,11.761,2.868c2.457,4.04,1.173,9.304-2.867,11.761
	c-26.056,15.844-46.83,38.562-60.072,65.687C112.445,185.886,109.398,187.649,106.231,187.649z"/>
<circle style="fill:#7383BF;" cx="258.251" cy="256.324" r="128.396"/>
<g>
	<path style="fill:#556080;" d="M386.647,264.884H129.855c-4.725,0-8.56-3.826-8.56-8.56c0-4.734,3.835-8.56,8.56-8.56h256.792
		c4.725,0,8.56,3.826,8.56,8.56C395.207,261.057,391.372,264.884,386.647,264.884z"/>
	<path style="fill:#556080;" d="M258.251,393.279c-36.584,0-70.977-14.243-96.845-40.119c-25.867-25.859-40.111-60.26-40.111-96.836
		s14.243-70.977,40.111-96.836c25.867-25.867,60.26-40.119,96.845-40.119s70.977,14.243,96.845,40.119
		c25.867,25.859,40.111,60.26,40.111,96.836s-14.243,70.977-40.111,96.836l0,0l0,0C329.229,379.036,294.836,393.279,258.251,393.279
		z M258.251,136.488c-32.013,0-62.101,12.463-84.741,35.103s-35.095,52.728-35.095,84.733s12.463,62.101,35.095,84.733
		s52.728,35.103,84.741,35.103s62.101-12.463,84.741-35.103l0,0c22.632-22.64,35.095-52.728,35.095-84.733
		s-12.463-62.101-35.095-84.733C320.361,148.951,290.265,136.488,258.251,136.488z"/>
	<path style="fill:#556080;" d="M258.251,393.279c-36.584,0-70.977-14.243-96.845-40.119c-2.294-2.294-4.451-4.656-6.54-7.062
		c-1.875-2.148-2.551-5.102-1.806-7.858c0.745-2.748,2.816-4.956,5.521-5.872c17.83-6.026,54.474-16.135,99.669-16.135
		s81.84,10.109,99.669,16.135c2.705,0.907,4.776,3.116,5.521,5.872c0.745,2.756,0.068,5.709-1.806,7.858
		c-2.097,2.405-4.254,4.776-6.54,7.062C329.229,379.036,294.836,393.279,258.251,393.279z M177.165,344.557
		c22.17,20.415,50.768,31.594,81.095,31.594s58.925-11.188,81.095-31.594c-18.866-5.29-47.464-11.205-81.095-11.205
		S196.022,339.268,177.165,344.557z"/>
	<path style="fill:#556080;" d="M258.251,196.406c-45.195,0-81.84-10.109-99.669-16.135c-2.705-0.907-4.776-3.116-5.521-5.872
		c-0.745-2.756-0.068-5.709,1.806-7.858c2.097-2.405,4.254-4.776,6.54-7.062c25.867-25.867,60.26-40.119,96.845-40.119
		s70.977,14.243,96.845,40.119c2.294,2.294,4.451,4.656,6.54,7.062c1.875,2.148,2.551,5.102,1.806,7.858
		c-0.745,2.748-2.816,4.956-5.521,5.872C340.099,186.297,303.447,196.406,258.251,196.406z M177.165,168.082
		c18.866,5.29,47.464,11.205,81.095,11.205s62.229-5.906,81.095-11.205c-22.17-20.415-50.768-31.594-81.095-31.594
		S199.335,147.667,177.165,168.082z"/>
	<path style="fill:#556080;" d="M258.251,393.279c-1.421,0-2.842-0.351-4.134-1.061c-2.731-1.507-4.425-4.383-4.425-7.498V127.971
		c0-3.116,1.695-5.992,4.425-7.498c2.722-1.515,6.06-1.404,8.705,0.257c9.073,5.726,17.419,12.591,27.074,22.247l0,0l0,0
		c30.798,30.806,47.755,71.054,47.755,113.348s-16.957,82.559-47.755,113.348c-9.732,9.741-18.078,16.606-27.074,22.29
		C261.427,392.834,259.843,393.279,258.251,393.279z M266.811,144.893v222.87c3.492-2.97,7.105-6.326,10.974-10.195
		c27.562-27.571,42.747-63.522,42.747-101.244s-15.176-73.674-42.739-101.244l0,0C273.933,151.21,270.321,147.864,266.811,144.893z"
		/>
	<path style="fill:#556080;" d="M258.251,393.237c-1.592,0-3.176-0.445-4.571-1.318c-9.073-5.726-17.419-12.591-27.074-22.247
		c-30.798-30.798-47.755-71.054-47.755-113.348s16.957-82.55,47.755-113.348l0,0l0,0c9.655-9.655,18.001-16.52,27.074-22.247
		c2.636-1.652,5.975-1.763,8.705-0.257c2.731,1.507,4.425,4.383,4.425,7.498v256.706c0,3.116-1.695,5.992-4.425,7.498
		C261.102,392.886,259.672,393.237,258.251,393.237z M249.692,144.893c-3.509,2.97-7.122,6.317-10.974,10.178l0,0
		c-27.562,27.571-42.739,63.522-42.739,101.244s15.176,73.674,42.739,101.244c3.86,3.86,7.464,7.216,10.974,10.177V144.893z
		 M232.666,149.019h0.086H232.666z"/>
</g>
<circle style="fill:#DD352E;" cx="424.969" cy="76.57" r="42.799"/>
<circle style="fill:#EBBA16;" cx="82.606" cy="436.078" r="42.799"/>
<g>
</g>
<g>
</g>
<g>
</g>
<g>
</g>
<g>
</g>
<g>
</g>
<g>
</g>
<g>
</g>
<g>
</g>
<g>
</g>
<g>
</g>
<g>
</g>
<g>
</g>
<g>
</g>
<g>
</g>
</svg>
